<svg width="1152" height="700" viewBox="0 0 1152 700" fill="none" xmlns="http://www.w3.org/2000/svg">
<rect width="1152" height="700" fill="black"/>
<path d="M366.312 199.25V208.49H354.882V199.25H351.822V221H354.882V211.13H366.312V221H369.372V199.25H366.312ZM388.357 213.83C388.717 208.73 385.747 204.59 380.827 204.59C376.417 204.59 372.997 207.86 372.997 212.96C372.997 217.73 375.817 221.39 380.917 221.39C384.847 221.39 387.397 219.11 388.147 216.32H385.327C384.637 217.91 383.317 218.99 380.917 218.99C378.517 218.99 376.057 217.31 375.937 213.83H388.357ZM380.827 206.93C383.707 206.93 385.417 209.21 385.477 211.49H375.967C376.207 208.25 378.397 206.93 380.827 206.93ZM394.269 199.25H391.539V221H394.269V199.25ZM398.599 204.86V226.25H401.329V218.57C402.319 220.28 404.029 221.39 406.609 221.39C410.299 221.39 413.509 218.33 413.509 212.99C413.509 207.68 410.299 204.59 406.609 204.59C404.029 204.59 402.319 205.7 401.329 207.41V204.86H398.599ZM401.209 212.99C401.209 208.73 403.489 206.93 405.919 206.93C408.709 206.93 410.539 209.15 410.539 212.99C410.539 216.83 408.709 219.05 405.919 219.05C403.489 219.05 401.209 217.25 401.209 212.99ZM426.554 212.24C426.554 208.79 428.114 206.96 430.454 206.96C433.424 206.96 433.904 209.12 433.904 211.61V221H436.634V212.24C436.634 208.79 438.194 206.96 440.534 206.96C443.504 206.96 443.984 209.12 443.984 211.61V221H446.714V210.8C446.714 207.11 445.244 204.59 441.494 204.59C439.244 204.59 437.354 205.46 436.064 207.44C435.344 205.67 433.874 204.59 431.414 204.59C428.984 204.59 427.484 205.76 426.554 207.29V204.86H423.824V221H426.554V212.24ZM465.056 213.83C465.416 208.73 462.446 204.59 457.526 204.59C453.116 204.59 449.696 207.86 449.696 212.96C449.696 217.73 452.516 221.39 457.616 221.39C461.546 221.39 464.096 219.11 464.846 216.32H462.026C461.336 217.91 460.016 218.99 457.616 218.99C455.216 218.99 452.756 217.31 452.636 213.83H465.056ZM457.526 206.93C460.406 206.93 462.116 209.21 462.176 211.49H452.666C452.906 208.25 455.096 206.93 457.526 206.93ZM482.635 213.83C482.995 208.73 480.025 204.59 475.105 204.59C470.695 204.59 467.275 207.86 467.275 212.96C467.275 217.73 470.095 221.39 475.195 221.39C479.125 221.39 481.675 219.11 482.425 216.32H479.605C478.915 217.91 477.595 218.99 475.195 218.99C472.795 218.99 470.335 217.31 470.215 213.83H482.635ZM475.105 206.93C477.985 206.93 479.695 209.21 479.755 211.49H470.245C470.485 208.25 472.675 206.93 475.105 206.93ZM495.665 212.24C495.665 208.79 497.225 206.96 499.565 206.96C502.535 206.96 503.015 209.12 503.015 211.61V221H505.745V212.24C505.745 208.79 507.305 206.96 509.645 206.96C512.615 206.96 513.095 209.12 513.095 211.61V221H515.825V210.8C515.825 207.11 514.355 204.59 510.605 204.59C508.355 204.59 506.465 205.46 505.175 207.44C504.455 205.67 502.985 204.59 500.525 204.59C498.095 204.59 496.595 205.76 495.665 207.29V204.86H492.935V221H495.665V212.24ZM534.168 213.83C534.528 208.73 531.558 204.59 526.638 204.59C522.228 204.59 518.808 207.86 518.808 212.96C518.808 217.73 521.628 221.39 526.728 221.39C530.658 221.39 533.208 219.11 533.958 216.32H531.138C530.448 217.91 529.128 218.99 526.728 218.99C524.328 218.99 521.868 217.31 521.748 213.83H534.168ZM526.638 206.93C529.518 206.93 531.228 209.21 531.288 211.49H521.778C522.018 208.25 524.208 206.93 526.638 206.93ZM538.129 204.86H535.579V207.05H538.129V216.95C538.129 220.31 538.849 221 541.939 221H543.919V218.72H542.539C540.979 218.72 540.859 218.3 540.859 216.62V207.05H543.919V204.86H540.859V200.81H538.129V204.86ZM556.954 199.25H554.224V221H556.954V212.24C556.954 208.79 558.574 206.96 561.214 206.96C564.334 206.96 564.754 209.12 564.754 211.61V221H567.484V210.8C567.484 207.11 566.074 204.59 562.174 204.59C559.444 204.59 557.884 205.76 556.954 207.29V199.25ZM585.818 213.83C586.178 208.73 583.208 204.59 578.288 204.59C573.878 204.59 570.458 207.86 570.458 212.96C570.458 217.73 573.278 221.39 578.378 221.39C582.308 221.39 584.858 219.11 585.608 216.32H582.788C582.098 217.91 580.778 218.99 578.378 218.99C575.978 218.99 573.518 217.31 573.398 213.83H585.818ZM578.288 206.93C581.168 206.93 582.878 209.21 582.938 211.49H573.428C573.668 208.25 575.858 206.93 578.288 206.93ZM589.78 204.86H587.23V207.05H589.78V216.95C589.78 220.31 590.5 221 593.59 221H595.57V218.72H594.19C592.63 218.72 592.51 218.3 592.51 216.62V207.05H595.57V204.86H592.51V200.81H589.78V204.86ZM607.735 212.99C607.735 208.58 610.105 206.99 612.565 206.99C615.025 206.99 617.395 208.7 617.395 212.99C617.395 217.13 615.025 218.99 612.565 218.99C610.105 218.99 607.735 217.28 607.735 212.99ZM612.565 204.59C608.815 204.59 604.825 207.14 604.825 212.99C604.825 218.84 608.815 221.39 612.565 221.39C616.315 221.39 620.305 218.84 620.305 212.99C620.305 207.14 616.315 204.59 612.565 204.59ZM624.147 204.86H621.117L627.207 221H629.637L635.727 204.86H632.907L628.527 217.22L624.147 204.86ZM651.853 213.83C652.213 208.73 649.243 204.59 644.323 204.59C639.913 204.59 636.493 207.86 636.493 212.96C636.493 217.73 639.313 221.39 644.413 221.39C648.343 221.39 650.893 219.11 651.643 216.32H648.823C648.133 217.91 646.813 218.99 644.413 218.99C642.013 218.99 639.553 217.31 639.433 213.83H651.853ZM644.323 206.93C647.203 206.93 648.913 209.21 648.973 211.49H639.463C639.703 208.25 641.893 206.93 644.323 206.93ZM663.075 204.8C662.775 204.77 662.535 204.77 662.265 204.77C660.165 204.83 658.515 205.85 657.705 207.68V204.86H655.035V221H657.765V212.54C657.765 209 659.025 207.59 661.545 207.59C661.995 207.59 662.505 207.65 663.075 207.71V204.8ZM666.479 204.86H663.929V207.05H666.479V216.95C666.479 220.31 667.199 221 670.289 221H672.269V218.72H670.889C669.329 218.72 669.209 218.3 669.209 216.62V207.05H672.269V204.86H669.209V200.81H666.479V204.86ZM684.425 204.86L680.435 217.31L676.325 204.86H673.295L679.115 221L678.995 221.33C678.275 223.85 677.405 223.97 675.605 223.97H674.495V226.25H675.905C679.505 226.25 680.345 225.2 681.515 221.69L687.275 204.86H684.425ZM689.43 204.86V226.25H692.16V218.57C693.15 220.28 694.86 221.39 697.44 221.39C701.13 221.39 704.34 218.33 704.34 212.99C704.34 207.68 701.13 204.59 697.44 204.59C694.86 204.59 693.15 205.7 692.16 207.41V204.86H689.43ZM692.04 212.99C692.04 208.73 694.32 206.93 696.75 206.93C699.54 206.93 701.37 209.15 701.37 212.99C701.37 216.83 699.54 219.05 696.75 219.05C694.32 219.05 692.04 217.25 692.04 212.99ZM722.019 213.83C722.379 208.73 719.409 204.59 714.489 204.59C710.079 204.59 706.659 207.86 706.659 212.96C706.659 217.73 709.479 221.39 714.579 221.39C718.509 221.39 721.059 219.11 721.809 216.32H718.989C718.299 217.91 716.979 218.99 714.579 218.99C712.179 218.99 709.719 217.31 709.599 213.83H722.019ZM714.489 206.93C717.369 206.93 719.079 209.21 719.139 211.49H709.629C709.869 208.25 712.059 206.93 714.489 206.93ZM727.931 204.86H725.201V221H727.931V212.24C727.931 208.79 729.551 206.96 732.191 206.96C735.311 206.96 735.731 209.12 735.731 211.61V221H738.461V210.8C738.461 207.11 737.051 204.59 733.151 204.59C730.421 204.59 728.861 205.76 727.931 207.29V204.86ZM750.534 204.86H747.504L753.594 221H756.024L762.114 204.86H759.294L754.914 217.22L750.534 204.86ZM773.867 214.25C773.867 218.06 771.437 219.23 768.887 219.23C766.937 219.23 765.767 218.21 765.767 216.68C765.767 214.46 768.917 213.74 773.867 213.23V214.25ZM768.287 221.39C771.137 221.39 772.817 220.43 773.807 218.78C773.837 219.74 773.927 220.4 774.017 221H776.777C776.477 219.47 776.327 217.61 776.357 214.91L776.387 211.19C776.417 206.66 774.407 204.53 769.967 204.53C766.817 204.53 763.757 206.48 763.487 209.96H766.307C766.427 207.98 767.747 206.75 769.997 206.75C772.007 206.75 773.657 207.74 773.657 210.68V211.07C767.027 211.82 762.737 212.93 762.737 216.74C762.737 219.71 765.257 221.39 768.287 221.39ZM783.185 204.86H780.455V221H783.185V212.24C783.185 208.79 784.805 206.96 787.445 206.96C790.565 206.96 790.985 209.12 790.985 211.61V221H793.715V210.8C793.715 207.11 792.305 204.59 788.405 204.59C785.675 204.59 784.115 205.76 783.185 207.29V204.86ZM355.617 246.41C354.627 244.7 352.917 243.59 350.337 243.59C346.647 243.59 343.437 246.68 343.437 251.99C343.437 257.33 346.647 260.39 350.337 260.39C352.917 260.39 354.627 259.28 355.617 257.57V260H358.347V238.25H355.617V246.41ZM355.737 251.99C355.737 256.25 353.457 258.05 351.027 258.05C348.237 258.05 346.407 255.83 346.407 251.99C346.407 248.15 348.237 245.93 351.027 245.93C353.457 245.93 355.737 247.73 355.737 251.99ZM376.902 252.83C377.262 247.73 374.292 243.59 369.372 243.59C364.962 243.59 361.542 246.86 361.542 251.96C361.542 256.73 364.362 260.39 369.462 260.39C373.392 260.39 375.942 258.11 376.692 255.32H373.872C373.182 256.91 371.862 257.99 369.462 257.99C367.062 257.99 364.602 256.31 364.482 252.83H376.902ZM369.372 245.93C372.252 245.93 373.962 248.21 374.022 250.49H364.512C364.752 247.25 366.942 245.93 369.372 245.93ZM387.293 238.25V251.15C387.293 257.93 389.933 260.39 395.963 260.39C402.293 260.39 404.723 257.27 404.723 250.91V238.25H401.663V251.15C401.663 255.44 400.133 257.75 395.963 257.75C391.883 257.75 390.353 255.74 390.353 251.48V238.25H387.293ZM409.926 243.86H407.376V246.05H409.926V255.95C409.926 259.31 410.646 260 413.736 260H415.716V257.72H414.336C412.776 257.72 412.656 257.3 412.656 255.62V246.05H415.716V243.86H412.656V239.81H409.926V243.86ZM426.942 243.8C426.642 243.77 426.402 243.77 426.132 243.77C424.032 243.83 422.382 244.85 421.572 246.68V243.86H418.902V260H421.632V251.54C421.632 248 422.892 246.59 425.412 246.59C425.862 246.59 426.372 246.65 426.942 246.71V243.8ZM443.523 252.83C443.883 247.73 440.913 243.59 435.993 243.59C431.583 243.59 428.163 246.86 428.163 251.96C428.163 256.73 430.983 260.39 436.083 260.39C440.013 260.39 442.563 258.11 443.313 255.32H440.493C439.803 256.91 438.483 257.99 436.083 257.99C433.683 257.99 431.223 256.31 431.103 252.83H443.523ZM435.993 245.93C438.873 245.93 440.583 248.21 440.643 250.49H431.133C431.373 247.25 433.563 245.93 435.993 245.93ZM453.541 243.59C448.771 243.59 445.741 247.16 445.741 251.96C445.741 256.88 448.651 260.39 453.271 260.39C457.021 260.39 459.931 257.78 460.471 254.75H457.651C457.261 256.46 455.641 257.99 453.361 257.99C450.961 257.99 448.711 256.04 448.711 251.93C448.711 247.88 450.931 245.99 453.361 245.99C455.461 245.99 457.141 247.34 457.531 249.26H460.291C459.931 246.53 457.441 243.59 453.541 243.59ZM466.281 238.25H463.551V260H466.281V251.24C466.281 247.79 467.901 245.96 470.541 245.96C473.661 245.96 474.081 248.12 474.081 250.61V260H476.811V249.8C476.811 246.11 475.401 243.59 471.501 243.59C468.771 243.59 467.211 244.76 466.281 246.29V238.25ZM481.674 243.86H479.124V246.05H481.674V255.95C481.674 259.31 482.394 260 485.484 260H487.464V257.72H486.084C484.524 257.72 484.404 257.3 484.404 255.62V246.05H487.464V243.86H484.404V239.81H481.674V243.86ZM502.74 248.57C502.23 245.51 499.86 243.56 496.38 243.56C492.81 243.56 489.93 245.21 489.93 248.06C489.93 251.06 492.33 252.08 494.52 252.53L496.92 253.01C498.66 253.37 500.19 254.06 500.19 255.68C500.19 257.18 498.51 258.08 496.44 258.08C494.04 258.08 492.75 256.85 492.33 254.78H489.45C489.75 257.6 492.15 260.39 496.38 260.39C500.07 260.39 502.95 258.56 502.95 255.38C502.95 252.26 500.37 251.15 497.43 250.58L495.15 250.13C493.59 249.83 492.69 249.23 492.69 247.94C492.69 246.47 494.49 245.9 496.08 245.9C497.97 245.9 499.47 246.65 499.89 248.57H502.74ZM520.662 252.83C521.022 247.73 518.052 243.59 513.132 243.59C508.722 243.59 505.302 246.86 505.302 251.96C505.302 256.73 508.122 260.39 513.222 260.39C517.152 260.39 519.702 258.11 520.452 255.32H517.632C516.942 256.91 515.622 257.99 513.222 257.99C510.822 257.99 508.362 256.31 508.242 252.83H520.662ZM513.132 245.93C516.012 245.93 517.722 248.21 517.782 250.49H508.272C508.512 247.25 510.702 245.93 513.132 245.93ZM541.823 246.41C540.833 244.7 539.273 243.59 536.693 243.59C533.123 243.59 529.853 246.5 529.853 251.66C529.853 256.85 533.123 259.73 536.693 259.73C539.273 259.73 540.833 258.65 541.823 256.94V258.47C541.823 260.66 541.373 261.41 540.773 262.04C540.053 262.82 538.943 263.24 537.473 263.24C534.953 263.24 534.083 262.13 533.723 260.69H530.813C531.323 263.96 533.783 265.64 537.443 265.64C539.843 265.64 541.853 264.86 543.023 263.51C543.953 262.49 544.553 261.14 544.553 257.84V243.86H541.823V246.41ZM541.943 251.66C541.943 255.77 539.813 257.42 537.383 257.42C534.713 257.42 532.823 255.35 532.823 251.66C532.823 248 534.713 245.93 537.383 245.93C539.813 245.93 541.943 247.58 541.943 251.66ZM563.113 252.83C563.473 247.73 560.503 243.59 555.583 243.59C551.173 243.59 547.753 246.86 547.753 251.96C547.753 256.73 550.573 260.39 555.673 260.39C559.603 260.39 562.153 258.11 562.903 255.32H560.083C559.393 256.91 558.073 257.99 555.673 257.99C553.273 257.99 550.813 256.31 550.693 252.83H563.113ZM555.583 245.93C558.463 245.93 560.173 248.21 560.233 250.49H550.723C550.963 247.25 553.153 245.93 555.583 245.93ZM567.018 243.86H563.988L570.078 260H572.508L578.598 243.86H575.778L571.398 256.22L567.018 243.86ZM590.351 253.25C590.351 257.06 587.921 258.23 585.371 258.23C583.421 258.23 582.251 257.21 582.251 255.68C582.251 253.46 585.401 252.74 590.351 252.23V253.25ZM584.771 260.39C587.621 260.39 589.301 259.43 590.291 257.78C590.321 258.74 590.411 259.4 590.501 260H593.261C592.961 258.47 592.811 256.61 592.841 253.91L592.871 250.19C592.901 245.66 590.891 243.53 586.451 243.53C583.301 243.53 580.241 245.48 579.971 248.96H582.791C582.911 246.98 584.231 245.75 586.481 245.75C588.491 245.75 590.141 246.74 590.141 249.68V250.07C583.511 250.82 579.221 251.93 579.221 255.74C579.221 258.71 581.741 260.39 584.771 260.39ZM599.669 243.86H596.939V260H599.669V251.24C599.669 247.79 601.289 245.96 603.929 245.96C607.049 245.96 607.469 248.12 607.469 250.61V260H610.199V249.8C610.199 246.11 608.789 243.59 604.889 243.59C602.159 243.59 600.599 244.76 599.669 246.29V243.86ZM625.143 246.41C624.153 244.7 622.593 243.59 620.013 243.59C616.443 243.59 613.173 246.5 613.173 251.66C613.173 256.85 616.443 259.73 620.013 259.73C622.593 259.73 624.153 258.65 625.143 256.94V258.47C625.143 260.66 624.693 261.41 624.093 262.04C623.373 262.82 622.263 263.24 620.793 263.24C618.273 263.24 617.403 262.13 617.043 260.69H614.133C614.643 263.96 617.103 265.64 620.763 265.64C623.163 265.64 625.173 264.86 626.343 263.51C627.273 262.49 627.873 261.14 627.873 257.84V243.86H625.143V246.41ZM625.263 251.66C625.263 255.77 623.133 257.42 620.703 257.42C618.033 257.42 616.143 255.35 616.143 251.66C616.143 248 618.033 245.93 620.703 245.93C623.133 245.93 625.263 247.58 625.263 251.66ZM646.433 252.83C646.793 247.73 643.823 243.59 638.903 243.59C634.493 243.59 631.073 246.86 631.073 251.96C631.073 256.73 633.893 260.39 638.993 260.39C642.923 260.39 645.473 258.11 646.223 255.32H643.403C642.713 256.91 641.393 257.99 638.993 257.99C636.593 257.99 634.133 256.31 634.013 252.83H646.433ZM638.903 245.93C641.783 245.93 643.493 248.21 643.553 250.49H634.043C634.283 247.25 636.473 245.93 638.903 245.93ZM652.345 243.86H649.615V260H652.345V251.24C652.345 247.79 653.965 245.96 656.605 245.96C659.725 245.96 660.145 248.12 660.145 250.61V260H662.875V249.8C662.875 246.11 661.465 243.59 657.565 243.59C654.835 243.59 653.275 244.76 652.345 246.29V243.86ZM666.959 243.86V260H669.689V243.86H666.959ZM666.959 238.25V241.55H669.689V238.25H666.959ZM686.109 248.57C685.599 245.51 683.229 243.56 679.749 243.56C676.179 243.56 673.299 245.21 673.299 248.06C673.299 251.06 675.699 252.08 677.889 252.53L680.289 253.01C682.029 253.37 683.559 254.06 683.559 255.68C683.559 257.18 681.879 258.08 679.809 258.08C677.409 258.08 676.119 256.85 675.699 254.78H672.819C673.119 257.6 675.519 260.39 679.749 260.39C683.439 260.39 686.319 258.56 686.319 255.38C686.319 252.26 683.739 251.15 680.799 250.58L678.519 250.13C676.959 249.83 676.059 249.23 676.059 247.94C676.059 246.47 677.859 245.9 679.449 245.9C681.339 245.9 682.839 246.65 683.259 248.57H686.109ZM697.821 243.8C697.521 243.77 697.281 243.77 697.011 243.77C694.911 243.83 693.261 244.85 692.451 246.68V243.86H689.781V260H692.511V251.54C692.511 248 693.771 246.59 696.291 246.59C696.741 246.59 697.251 246.65 697.821 246.71V243.8ZM714.402 252.83C714.762 247.73 711.792 243.59 706.872 243.59C702.462 243.59 699.042 246.86 699.042 251.96C699.042 256.73 701.862 260.39 706.962 260.39C710.892 260.39 713.442 258.11 714.192 255.32H711.372C710.682 256.91 709.362 257.99 706.962 257.99C704.562 257.99 702.102 256.31 701.982 252.83H714.402ZM706.872 245.93C709.752 245.93 711.462 248.21 711.522 250.49H702.012C702.252 247.25 704.442 245.93 706.872 245.93ZM728.59 246.41C727.6 244.7 726.04 243.59 723.46 243.59C719.89 243.59 716.62 246.5 716.62 251.66C716.62 256.85 719.89 259.73 723.46 259.73C726.04 259.73 727.6 258.65 728.59 256.94V258.47C728.59 260.66 728.14 261.41 727.54 262.04C726.82 262.82 725.71 263.24 724.24 263.24C721.72 263.24 720.85 262.13 720.49 260.69H717.58C718.09 263.96 720.55 265.64 724.21 265.64C726.61 265.64 728.62 264.86 729.79 263.51C730.72 262.49 731.32 261.14 731.32 257.84V243.86H728.59V246.41ZM728.71 251.66C728.71 255.77 726.58 257.42 724.15 257.42C721.48 257.42 719.59 255.35 719.59 251.66C719.59 248 721.48 245.93 724.15 245.93C726.58 245.93 728.71 247.58 728.71 251.66ZM735.631 243.86V260H738.361V243.86H735.631ZM735.631 238.25V241.55H738.361V238.25H735.631ZM754.781 248.57C754.271 245.51 751.901 243.56 748.421 243.56C744.851 243.56 741.971 245.21 741.971 248.06C741.971 251.06 744.371 252.08 746.561 252.53L748.961 253.01C750.701 253.37 752.231 254.06 752.231 255.68C752.231 257.18 750.551 258.08 748.481 258.08C746.081 258.08 744.791 256.85 744.371 254.78H741.491C741.791 257.6 744.191 260.39 748.421 260.39C752.111 260.39 754.991 258.56 754.991 255.38C754.991 252.26 752.411 251.15 749.471 250.58L747.191 250.13C745.631 249.83 744.731 249.23 744.731 247.94C744.731 246.47 746.531 245.9 748.121 245.9C750.011 245.9 751.511 246.65 751.931 248.57H754.781ZM759.233 243.86H756.683V246.05H759.233V255.95C759.233 259.31 759.953 260 763.043 260H765.023V257.72H763.643C762.083 257.72 761.963 257.3 761.963 255.62V246.05H765.023V243.86H761.963V239.81H759.233V243.86ZM782.312 252.83C782.672 247.73 779.702 243.59 774.782 243.59C770.372 243.59 766.952 246.86 766.952 251.96C766.952 256.73 769.772 260.39 774.872 260.39C778.802 260.39 781.352 258.11 782.102 255.32H779.282C778.592 256.91 777.272 257.99 774.872 257.99C772.472 257.99 770.012 256.31 769.892 252.83H782.312ZM774.782 245.93C777.662 245.93 779.372 248.21 779.432 250.49H769.922C770.162 247.25 772.352 245.93 774.782 245.93ZM793.534 243.8C793.234 243.77 792.994 243.77 792.724 243.77C790.624 243.83 788.974 244.85 788.164 246.68V243.86H785.494V260H788.224V251.54C788.224 248 789.484 246.59 792.004 246.59C792.454 246.59 792.964 246.65 793.534 246.71V243.8ZM808.102 248.57C807.592 245.51 805.222 243.56 801.742 243.56C798.172 243.56 795.292 245.21 795.292 248.06C795.292 251.06 797.692 252.08 799.882 252.53L802.282 253.01C804.022 253.37 805.552 254.06 805.552 255.68C805.552 257.18 803.872 258.08 801.802 258.08C799.402 258.08 798.112 256.85 797.692 254.78H794.812C795.112 257.6 797.512 260.39 801.742 260.39C805.432 260.39 808.312 258.56 808.312 255.38C808.312 252.26 805.732 251.15 802.792 250.58L800.512 250.13C798.952 249.83 798.052 249.23 798.052 247.94C798.052 246.47 799.852 245.9 801.442 245.9C803.332 245.9 804.832 246.65 805.252 248.57H808.102Z" fill="white"/>
<rect x="481.5" y="528.5" width="190" height="51" rx="19.5" stroke="white"/>
<path d="M532.946 547.8C532.946 551.43 535.946 553.08 538.916 553.74L541.616 554.31C544.346 554.91 546.296 555.87 546.296 558.15C546.296 560.28 544.436 561.81 541.226 561.81C537.896 561.81 535.796 560.25 535.226 557.25H532.226C532.796 561.6 536.036 564.39 541.166 564.39C545.486 564.39 549.446 562.14 549.446 557.88C549.446 553.5 545.456 552.24 542.126 551.52L539.606 550.95C537.596 550.5 536.066 549.54 536.066 547.62C536.066 545.19 539.006 544.44 540.686 544.44C542.876 544.44 545.336 545.28 546.086 547.8H549.056C548.216 543.6 544.706 541.86 540.806 541.86C537.296 541.86 532.946 543.66 532.946 547.8ZM557.271 564H560.331V544.89H567.411V542.25H550.191V544.89H557.271V564ZM565.25 564H568.37L570.05 559.29H580.04L581.75 564H585.05L576.86 542.25H573.32L565.25 564ZM575 545.34L579.08 556.68H570.98L575 545.34ZM600.895 564H604.315L599.275 554.34C601.945 553.62 603.595 551.97 603.595 548.52C603.595 543.3 599.845 542.25 594.535 542.25H587.635V564H590.695V554.85H594.535C595.105 554.85 595.645 554.85 596.185 554.82L600.895 564ZM594.775 544.83C597.955 544.83 600.445 545.22 600.445 548.58C600.445 551.94 597.955 552.27 594.775 552.27H590.695V544.83H594.775ZM611.588 564H614.648V544.89H621.728V542.25H604.508V544.89H611.588V564Z" fill="white"/>
<path d="M446.185 305.36C446.185 307.296 447.785 308.176 449.369 308.528L450.809 308.832C452.265 309.152 453.305 309.664 453.305 310.88C453.305 312.016 452.313 312.832 450.601 312.832C448.825 312.832 447.705 312 447.401 310.4H445.801C446.105 312.72 447.833 314.208 450.569 314.208C452.873 314.208 454.985 313.008 454.985 310.736C454.985 308.4 452.857 307.728 451.081 307.344L449.737 307.04C448.665 306.8 447.849 306.288 447.849 305.264C447.849 303.968 449.417 303.568 450.313 303.568C451.481 303.568 452.793 304.016 453.193 305.36H454.777C454.329 303.12 452.457 302.192 450.377 302.192C448.505 302.192 446.185 303.152 446.185 305.36ZM462.271 310.4C462.271 312.432 460.975 313.056 459.615 313.056C458.575 313.056 457.951 312.512 457.951 311.696C457.951 310.512 459.631 310.128 462.271 309.856V310.4ZM459.295 314.208C460.815 314.208 461.711 313.696 462.239 312.816C462.255 313.328 462.303 313.68 462.351 314H463.823C463.663 313.184 463.583 312.192 463.599 310.752L463.615 308.768C463.631 306.352 462.559 305.216 460.191 305.216C458.511 305.216 456.879 306.256 456.735 308.112H458.239C458.303 307.056 459.007 306.4 460.207 306.4C461.279 306.4 462.159 306.928 462.159 308.496V308.704C458.623 309.104 456.335 309.696 456.335 311.728C456.335 313.312 457.679 314.208 459.295 314.208ZM467.241 309.328C467.241 307.488 468.073 306.512 469.321 306.512C470.905 306.512 471.161 307.664 471.161 308.992V314H472.617V309.328C472.617 307.488 473.449 306.512 474.697 306.512C476.281 306.512 476.537 307.664 476.537 308.992V314H477.993V308.56C477.993 306.592 477.209 305.248 475.209 305.248C474.009 305.248 473.001 305.712 472.313 306.768C471.929 305.824 471.145 305.248 469.833 305.248C468.537 305.248 467.737 305.872 467.241 306.688V305.392H465.785V314H467.241V309.328ZM487.775 310.176C487.967 307.456 486.383 305.248 483.759 305.248C481.407 305.248 479.583 306.992 479.583 309.712C479.583 312.256 481.087 314.208 483.807 314.208C485.903 314.208 487.263 312.992 487.663 311.504H486.159C485.791 312.352 485.087 312.928 483.807 312.928C482.527 312.928 481.215 312.032 481.151 310.176H487.775ZM483.759 306.496C485.295 306.496 486.207 307.712 486.239 308.928H481.167C481.295 307.2 482.463 306.496 483.759 306.496ZM490.928 305.392H489.472V314H490.928V309.328C490.928 307.488 491.792 306.512 493.2 306.512C494.864 306.512 495.088 307.664 495.088 308.992V314H496.544V308.56C496.544 306.592 495.792 305.248 493.712 305.248C492.256 305.248 491.424 305.872 490.928 306.688V305.392ZM500.866 311.76L499.218 305.392H497.65L500.13 314H501.458L503.298 307.072L505.202 314H506.53L509.01 305.392H507.442L505.794 311.76L504.082 305.392H502.578L500.866 311.76ZM517.76 310.176C517.952 307.456 516.368 305.248 513.744 305.248C511.392 305.248 509.568 306.992 509.568 309.712C509.568 312.256 511.072 314.208 513.792 314.208C515.888 314.208 517.248 312.992 517.648 311.504H516.144C515.776 312.352 515.072 312.928 513.792 312.928C512.512 312.928 511.2 312.032 511.136 310.176H517.76ZM513.744 306.496C515.28 306.496 516.192 307.712 516.224 308.928H511.152C511.28 307.2 512.448 306.496 513.744 306.496ZM523.745 305.36C523.585 305.344 523.457 305.344 523.313 305.344C522.193 305.376 521.313 305.92 520.881 306.896V305.392H519.457V314H520.913V309.488C520.913 307.6 521.585 306.848 522.929 306.848C523.169 306.848 523.441 306.88 523.745 306.912V305.36ZM525.144 302.4V314H526.6V311.12L527.608 310.032L530.536 314H532.312L528.584 308.96L531.864 305.392H530.072L526.6 309.264V302.4H525.144ZM533.222 305.392V314H534.678V305.392H533.222ZM533.222 302.4V304.16H534.678V302.4H533.222ZM538.444 305.392H536.988V314H538.444V309.328C538.444 307.488 539.308 306.512 540.716 306.512C542.38 306.512 542.604 307.664 542.604 308.992V314H544.06V308.56C544.06 306.592 543.308 305.248 541.228 305.248C539.772 305.248 538.94 305.872 538.444 306.688V305.392ZM552.03 306.752C551.502 305.84 550.67 305.248 549.294 305.248C547.39 305.248 545.646 306.8 545.646 309.552C545.646 312.32 547.39 313.856 549.294 313.856C550.67 313.856 551.502 313.28 552.03 312.368V313.184C552.03 314.352 551.79 314.752 551.47 315.088C551.086 315.504 550.494 315.728 549.71 315.728C548.366 315.728 547.902 315.136 547.71 314.368H546.158C546.43 316.112 547.742 317.008 549.694 317.008C550.974 317.008 552.046 316.592 552.67 315.872C553.166 315.328 553.486 314.608 553.486 312.848V305.392H552.03V306.752ZM552.094 309.552C552.094 311.744 550.958 312.624 549.662 312.624C548.238 312.624 547.23 311.52 547.23 309.552C547.23 307.6 548.238 306.496 549.662 306.496C550.958 306.496 552.094 307.376 552.094 309.552ZM559.998 305.392H558.638V306.56H559.998V311.84C559.998 313.632 560.382 314 562.03 314H563.086V312.784H562.35C561.518 312.784 561.454 312.56 561.454 311.664V306.56H563.086V305.392H561.454V303.232H559.998V305.392ZM570.113 314H571.569V305.392H570.113V310.128C570.113 311.968 569.297 312.944 567.921 312.944C566.337 312.944 566.113 311.792 566.113 310.464V305.392H564.657V310.896C564.657 312.864 565.409 314.208 567.409 314.208C568.833 314.208 569.617 313.584 570.113 312.768V314ZM580.327 307.904C580.055 306.272 578.791 305.232 576.935 305.232C575.031 305.232 573.495 306.112 573.495 307.632C573.495 309.232 574.775 309.776 575.943 310.016L577.223 310.272C578.151 310.464 578.967 310.832 578.967 311.696C578.967 312.496 578.071 312.976 576.967 312.976C575.687 312.976 574.999 312.32 574.775 311.216H573.239C573.399 312.72 574.679 314.208 576.935 314.208C578.903 314.208 580.439 313.232 580.439 311.536C580.439 309.872 579.063 309.28 577.495 308.976L576.279 308.736C575.447 308.576 574.967 308.256 574.967 307.568C574.967 306.784 575.927 306.48 576.775 306.48C577.783 306.48 578.583 306.88 578.807 307.904H580.327ZM588.733 307.904C588.461 306.272 587.197 305.232 585.341 305.232C583.437 305.232 581.901 306.112 581.901 307.632C581.901 309.232 583.181 309.776 584.349 310.016L585.629 310.272C586.557 310.464 587.373 310.832 587.373 311.696C587.373 312.496 586.477 312.976 585.373 312.976C584.093 312.976 583.405 312.32 583.181 311.216H581.645C581.805 312.72 583.085 314.208 585.341 314.208C587.309 314.208 588.845 313.232 588.845 311.536C588.845 309.872 587.469 309.28 585.901 308.976L584.685 308.736C583.853 308.576 583.373 308.256 583.373 307.568C583.373 306.784 584.333 306.48 585.181 306.48C586.189 306.48 586.989 306.88 587.213 307.904H588.733ZM598.291 310.176C598.483 307.456 596.899 305.248 594.275 305.248C591.923 305.248 590.099 306.992 590.099 309.712C590.099 312.256 591.603 314.208 594.323 314.208C596.419 314.208 597.779 312.992 598.179 311.504H596.675C596.307 312.352 595.603 312.928 594.323 312.928C593.043 312.928 591.731 312.032 591.667 310.176H598.291ZM594.275 306.496C595.811 306.496 596.723 307.712 596.755 308.928H591.683C591.811 307.2 592.979 306.496 594.275 306.496ZM601.444 305.392H599.988V314H601.444V309.328C601.444 307.488 602.308 306.512 603.716 306.512C605.38 306.512 605.604 307.664 605.604 308.992V314H607.06V308.56C607.06 306.592 606.308 305.248 604.228 305.248C602.772 305.248 601.94 305.872 601.444 306.688V305.392ZM620.987 302.4V307.328H614.891V302.4H613.259V314H614.891V308.736H620.987V314H622.619V302.4H620.987ZM625.192 302.4V309.28C625.192 312.896 626.6 314.208 629.816 314.208C633.192 314.208 634.488 312.544 634.488 309.152V302.4H632.856V309.28C632.856 311.568 632.04 312.8 629.816 312.8C627.64 312.8 626.824 311.728 626.824 309.456V302.4H625.192ZM635.086 314H636.75L637.646 311.488H642.974L643.886 314H645.646L641.278 302.4H639.39L635.086 314ZM640.286 304.048L642.462 310.096H638.142L640.286 304.048ZM658.197 310.176C658.389 307.456 656.805 305.248 654.181 305.248C651.829 305.248 650.005 306.992 650.005 309.712C650.005 312.256 651.509 314.208 654.229 314.208C656.325 314.208 657.685 312.992 658.085 311.504H656.581C656.213 312.352 655.509 312.928 654.229 312.928C652.949 312.928 651.637 312.032 651.573 310.176H658.197ZM654.181 306.496C655.717 306.496 656.629 307.712 656.661 308.928H651.589C651.717 307.2 652.885 306.496 654.181 306.496ZM661.35 305.392H659.894V314H661.35V309.328C661.35 307.488 662.214 306.512 663.622 306.512C665.286 306.512 665.51 307.664 665.51 308.992V314H666.966V308.56C666.966 306.592 666.214 305.248 664.134 305.248C662.678 305.248 661.846 305.872 661.35 306.688V305.392ZM681.309 310.304C680.941 311.792 679.805 312.832 677.965 312.832C675.805 312.832 674.269 311.104 674.269 308.176C674.269 305.168 675.869 303.568 677.917 303.568C679.773 303.568 680.893 304.656 681.245 306.096H682.829C682.333 303.616 680.397 302.192 677.997 302.192C674.717 302.192 672.605 304.576 672.605 308.176C672.605 311.712 674.541 314.208 677.869 314.208C680.381 314.208 682.381 312.864 682.893 310.304H681.309ZM692.918 310.304C692.55 311.792 691.414 312.832 689.574 312.832C687.414 312.832 685.878 311.104 685.878 308.176C685.878 305.168 687.478 303.568 689.526 303.568C691.382 303.568 692.502 304.656 692.854 306.096H694.438C693.942 303.616 692.006 302.192 689.606 302.192C686.326 302.192 684.214 304.576 684.214 308.176C684.214 311.712 686.15 314.208 689.478 314.208C691.99 314.208 693.99 312.864 694.502 310.304H692.918ZM696.208 302.4V309.28C696.208 312.896 697.616 314.208 700.832 314.208C704.208 314.208 705.504 312.544 705.504 309.152V302.4H703.872V309.28C703.872 311.568 703.056 312.8 700.832 312.8C698.656 312.8 697.84 311.728 697.84 309.456V302.4H696.208Z" fill="white"/>
</svg>
