<svg width="1152" height="700" viewBox="0 0 1152 700" fill="none" xmlns="http://www.w3.org/2000/svg">
<rect width="1152" height="700" fill="black"/>
<path d="M469.933 272.25H466.333L462.313 290.52L458.113 272.25H454.753L460.273 294H463.993L468.103 276.12L472.303 294H476.023L481.453 272.25H478.243L474.223 290.52L469.933 272.25ZM493.059 287.25C493.059 291.06 490.629 292.23 488.079 292.23C486.129 292.23 484.959 291.21 484.959 289.68C484.959 287.46 488.109 286.74 493.059 286.23V287.25ZM487.479 294.39C490.329 294.39 492.009 293.43 492.999 291.78C493.029 292.74 493.119 293.4 493.209 294H495.969C495.669 292.47 495.519 290.61 495.549 287.91L495.579 284.19C495.609 279.66 493.599 277.53 489.159 277.53C486.009 277.53 482.949 279.48 482.679 282.96H485.499C485.619 280.98 486.939 279.75 489.189 279.75C491.199 279.75 492.849 280.74 492.849 283.68V284.07C486.219 284.82 481.929 285.93 481.929 289.74C481.929 292.71 484.449 294.39 487.479 294.39ZM500.426 277.86H497.876V280.05H500.426V289.95C500.426 293.31 501.146 294 504.236 294H506.216V291.72H504.836C503.276 291.72 503.156 291.3 503.156 289.62V280.05H506.216V277.86H503.156V273.81H500.426V277.86ZM516.521 277.86V294H519.251V277.86H516.521ZM516.521 272.25V275.55H519.251V272.25H516.521ZM535.672 282.57C535.162 279.51 532.792 277.56 529.312 277.56C525.742 277.56 522.862 279.21 522.862 282.06C522.862 285.06 525.262 286.08 527.452 286.53L529.852 287.01C531.592 287.37 533.122 288.06 533.122 289.68C533.122 291.18 531.442 292.08 529.372 292.08C526.972 292.08 525.682 290.85 525.262 288.78H522.382C522.682 291.6 525.082 294.39 529.312 294.39C533.002 294.39 535.882 292.56 535.882 289.38C535.882 286.26 533.302 285.15 530.362 284.58L528.082 284.13C526.522 283.83 525.622 283.23 525.622 281.94C525.622 280.47 527.422 279.9 529.012 279.9C530.902 279.9 532.402 280.65 532.822 282.57H535.672ZM546.463 294.87C546.463 296.55 546.193 296.97 544.783 296.97H544.003V299.25H545.383C548.503 299.25 549.193 298.17 549.193 294.81V277.86H546.463V294.87ZM546.463 272.25V275.55H549.193V272.25H546.463ZM567.773 286.83C568.133 281.73 565.163 277.59 560.243 277.59C555.833 277.59 552.413 280.86 552.413 285.96C552.413 290.73 555.233 294.39 560.333 294.39C564.263 294.39 566.813 292.11 567.563 289.32H564.743C564.053 290.91 562.733 291.99 560.333 291.99C557.933 291.99 555.473 290.31 555.353 286.83H567.773ZM560.243 279.93C563.123 279.93 564.833 282.21 564.893 284.49H555.383C555.623 281.25 557.813 279.93 560.243 279.93ZM580.804 277.86H578.074V294H580.804V285.24C580.804 281.79 582.424 279.96 585.064 279.96C588.184 279.96 588.604 282.12 588.604 284.61V294H591.334V283.8C591.334 280.11 589.924 277.59 586.024 277.59C583.294 277.59 581.734 278.76 580.804 280.29V277.86ZM605.588 287.25C605.588 291.06 603.158 292.23 600.608 292.23C598.658 292.23 597.488 291.21 597.488 289.68C597.488 287.46 600.638 286.74 605.588 286.23V287.25ZM600.008 294.39C602.858 294.39 604.538 293.43 605.528 291.78C605.558 292.74 605.648 293.4 605.738 294H608.498C608.198 292.47 608.048 290.61 608.078 287.91L608.108 284.19C608.138 279.66 606.128 277.53 601.688 277.53C598.538 277.53 595.478 279.48 595.208 282.96H598.028C598.148 280.98 599.468 279.75 601.718 279.75C603.728 279.75 605.378 280.74 605.378 283.68V284.07C598.748 284.82 594.458 285.93 594.458 289.74C594.458 292.71 596.978 294.39 600.008 294.39ZM622.346 287.25C622.346 291.06 619.916 292.23 617.366 292.23C615.416 292.23 614.246 291.21 614.246 289.68C614.246 287.46 617.396 286.74 622.346 286.23V287.25ZM616.766 294.39C619.616 294.39 621.296 293.43 622.286 291.78C622.316 292.74 622.406 293.4 622.496 294H625.256C624.956 292.47 624.806 290.61 624.836 287.91L624.866 284.19C624.896 279.66 622.886 277.53 618.446 277.53C615.296 277.53 612.236 279.48 611.966 282.96H614.786C614.906 280.98 616.226 279.75 618.476 279.75C620.486 279.75 622.136 280.74 622.136 283.68V284.07C615.506 284.82 611.216 285.93 611.216 289.74C611.216 292.71 613.736 294.39 616.766 294.39ZM631.663 285.24C631.663 281.79 633.223 279.96 635.563 279.96C638.533 279.96 639.013 282.12 639.013 284.61V294H641.743V285.24C641.743 281.79 643.303 279.96 645.643 279.96C648.613 279.96 649.093 282.12 649.093 284.61V294H651.823V283.8C651.823 280.11 650.353 277.59 646.603 277.59C644.353 277.59 642.463 278.46 641.173 280.44C640.453 278.67 638.983 277.59 636.523 277.59C634.093 277.59 632.593 278.76 631.663 280.29V277.86H628.933V294H631.663V285.24ZM661.496 271.86C657.236 271.86 654.176 274.41 654.146 278.31H656.876C656.996 276.48 658.076 274.14 661.436 274.14C663.746 274.14 665.426 275.37 665.426 277.26C665.426 279.21 664.196 280.41 662.636 281.4C660.146 282.99 658.916 284.1 658.916 286.62V287.64H661.706V286.71C661.706 285.06 662.366 284.52 664.226 283.32C666.266 282 668.276 279.99 668.276 277.14C668.276 273.51 664.886 271.86 661.496 271.86ZM662.096 294V290.55H658.646V294H662.096Z" fill="white"/>
<rect x="580.5" y="374.5" width="113" height="51" rx="19.5" fill="white" stroke="white"/>
<rect x="457.5" y="374.5" width="115" height="51" rx="19.5" stroke="white"/>
<path d="M595.737 410H604.317C608.667 410 612.117 408.2 612.117 403.58C612.117 400.91 610.887 399.29 608.817 398.42C610.317 397.55 611.217 395.69 611.217 393.62C611.217 389.3 607.617 388.25 603.567 388.25H595.737V410ZM598.797 399.98H604.167C607.437 399.98 608.967 401.06 608.967 403.61C608.967 406.07 607.437 407.42 604.347 407.42H598.797V399.98ZM598.797 390.83H604.047C606.477 390.83 608.127 391.82 608.127 394.04C608.127 396.59 606.537 397.55 604.047 397.55H598.797V390.83ZM630.016 402.83C630.376 397.73 627.406 393.59 622.486 393.59C618.076 393.59 614.656 396.86 614.656 401.96C614.656 406.73 617.476 410.39 622.576 410.39C626.506 410.39 629.056 408.11 629.806 405.32H626.986C626.296 406.91 624.976 407.99 622.576 407.99C620.176 407.99 617.716 406.31 617.596 402.83H630.016ZM622.486 395.93C625.366 395.93 627.076 398.21 627.136 400.49H617.626C617.866 397.25 620.056 395.93 622.486 395.93ZM644.205 396.41C643.215 394.7 641.655 393.59 639.075 393.59C635.505 393.59 632.235 396.5 632.235 401.66C632.235 406.85 635.505 409.73 639.075 409.73C641.655 409.73 643.215 408.65 644.205 406.94V408.47C644.205 410.66 643.755 411.41 643.155 412.04C642.435 412.82 641.325 413.24 639.855 413.24C637.335 413.24 636.465 412.13 636.105 410.69H633.195C633.705 413.96 636.165 415.64 639.825 415.64C642.225 415.64 644.235 414.86 645.405 413.51C646.335 412.49 646.935 411.14 646.935 407.84V393.86H644.205V396.41ZM644.325 401.66C644.325 405.77 642.195 407.42 639.765 407.42C637.095 407.42 635.205 405.35 635.205 401.66C635.205 398 637.095 395.93 639.765 395.93C642.195 395.93 644.325 397.58 644.325 401.66ZM651.245 393.86V410H653.975V393.86H651.245ZM651.245 388.25V391.55H653.975V388.25H651.245ZM661.036 393.86H658.306V410H661.036V401.24C661.036 397.79 662.656 395.96 665.296 395.96C668.416 395.96 668.836 398.12 668.836 400.61V410H671.566V399.8C671.566 396.11 670.156 393.59 666.256 393.59C663.526 393.59 661.966 394.76 661.036 396.29V393.86ZM678.019 403.64L678.619 394.82V388.25H675.709V394.82L676.309 403.64H678.019ZM678.889 410V406.55H675.439V410H678.889Z" fill="black"/>
<path d="M483.144 410H486.204V390.89H493.284V388.25H476.064V390.89H483.144V410ZM507.299 402.83C507.659 397.73 504.689 393.59 499.769 393.59C495.359 393.59 491.939 396.86 491.939 401.96C491.939 406.73 494.759 410.39 499.859 410.39C503.789 410.39 506.339 408.11 507.089 405.32H504.269C503.579 406.91 502.259 407.99 499.859 407.99C497.459 407.99 494.999 406.31 494.879 402.83H507.299ZM499.769 395.93C502.649 395.93 504.359 398.21 504.419 400.49H494.909C495.149 397.25 497.339 395.93 499.769 395.93ZM518.52 393.8C518.22 393.77 517.98 393.77 517.71 393.77C515.61 393.83 513.96 394.85 513.15 396.68V393.86H510.48V410H513.21V401.54C513.21 398 514.47 396.59 516.99 396.59C517.44 396.59 517.95 396.65 518.52 396.71V393.8ZM531.134 410H533.864V393.86H531.134V402.74C531.134 406.19 529.604 408.02 527.024 408.02C524.054 408.02 523.634 405.86 523.634 403.37V393.86H520.904V404.18C520.904 407.87 522.314 410.39 526.064 410.39C528.734 410.39 530.204 409.22 531.134 407.69V410ZM549.055 396.41C548.065 394.7 546.505 393.59 543.925 393.59C540.355 393.59 537.085 396.5 537.085 401.66C537.085 406.85 540.355 409.73 543.925 409.73C546.505 409.73 548.065 408.65 549.055 406.94V408.47C549.055 410.66 548.605 411.41 548.005 412.04C547.285 412.82 546.175 413.24 544.705 413.24C542.185 413.24 541.315 412.13 540.955 410.69H538.045C538.555 413.96 541.015 415.64 544.675 415.64C547.075 415.64 549.085 414.86 550.255 413.51C551.185 412.49 551.785 411.14 551.785 407.84V393.86H549.055V396.41ZM549.175 401.66C549.175 405.77 547.045 407.42 544.615 407.42C541.945 407.42 540.055 405.35 540.055 401.66C540.055 398 541.945 395.93 544.615 395.93C547.045 395.93 549.175 397.58 549.175 401.66Z" fill="white"/>
<line x1="454" y1="311.5" x2="697" y2="311.5" stroke="white"/>
<line x1="685.5" y1="294" x2="685.5" y2="269" stroke="white"/>
</svg>
